<svg aria-hidden="true" style="position: absolute; width: 0; height: 0; overflow: hidden;" version="1.1" xmlns="http://www.w3.org/2000/svg" xmlns:xlink="http://www.w3.org/1999/xlink">
<defs>
<symbol id="icon-book1" viewBox="0 0 32 32">
<path d="M30.41 8.536c0.447 0.642 0.571 1.482 0.321 2.304l-4.911 16.178c-0.447 1.518-2.018 2.696-3.553 2.696h-16.482c-1.822 0-3.768-1.447-4.429-3.304-0.286-0.803-0.286-1.59-0.035-2.267 0.035-0.358 0.107-0.714 0.125-1.143 0.018-0.286-0.143-0.518-0.107-0.733 0.072-0.429 0.447-0.733 0.733-1.214 0.536-0.893 1.143-2.339 1.339-3.267 0.089-0.339-0.089-0.733 0-1.035 0.089-0.339 0.429-0.59 0.607-0.911 0.482-0.822 1.107-2.41 1.197-3.25 0.035-0.375-0.143-0.786-0.035-1.072 0.125-0.41 0.518-0.59 0.786-0.946 0.429-0.59 1.143-2.286 1.25-3.232 0.035-0.304-0.143-0.607-0.089-0.928 0.072-0.339 0.501-0.696 0.786-1.107 0.75-1.107 0.893-3.553 3.161-2.911l-0.018 0.054c0.304-0.072 0.607-0.161 0.911-0.161h13.59c0.839 0 1.59 0.375 2.035 1 0.464 0.642 0.571 1.482 0.321 2.321l-4.893 16.178c-0.839 2.75-1.304 3.358-3.571 3.358h-15.518c-0.232 0-0.518 0.054-0.679 0.267-0.143 0.214-0.161 0.375-0.018 0.768 0.358 1.035 1.59 1.25 2.571 1.25h16.482c0.661 0 1.429-0.375 1.625-1.018l5.358-17.625c0.107-0.339 0.107-0.696 0.089-1.018 0.41 0.161 0.786 0.41 1.054 0.768zM11.41 8.571c-0.107 0.321 0.072 0.571 0.393 0.571h10.857c0.304 0 0.642-0.25 0.75-0.571l0.375-1.143c0.107-0.321-0.072-0.571-0.393-0.571h-10.857c-0.304 0-0.642 0.25-0.75 0.571zM9.929 13.143c-0.107 0.321 0.072 0.571 0.393 0.571h10.857c0.304 0 0.642-0.25 0.75-0.571l0.375-1.143c0.107-0.321-0.072-0.571-0.393-0.571h-10.857c-0.304 0-0.642 0.25-0.75 0.571z"></path>
</symbol>
<symbol id="icon-camera" viewBox="0 0 32 32">
<path d="M0 9.6c0-1.76 1.44-3.2 3.2-3.2h4.8l3.2-3.2h9.6l3.2 3.2h4.8c1.767 0 3.2 1.433 3.2 3.2v0 16c0 1.767-1.433 3.2-3.2 3.2v0h-25.6c-1.767 0-3.2-1.433-3.2-3.2v0-16zM16 25.6c4.418 0 8-3.582 8-8s-3.582-8-8-8v0c-4.418 0-8 3.582-8 8s3.582 8 8 8v0zM16 22.4c-2.651 0-4.8-2.149-4.8-4.8s2.149-4.8 4.8-4.8v0c2.651 0 4.8 2.149 4.8 4.8s-2.149 4.8-4.8 4.8v0z"></path>
</symbol>
<symbol id="icon-circle-left" viewBox="0 0 32 32">
<path d="M16 32c8.837 0 16-7.163 16-16s-7.163-16-16-16-16 7.163-16 16 7.163 16 16 16zM16 3c7.18 0 13 5.82 13 13s-5.82 13-13 13-13-5.82-13-13 5.82-13 13-13z"></path>
<path d="M20.914 9.914l-2.829-2.829-8.914 8.914 8.914 8.914 2.828-2.828-6.086-6.086z"></path>
</symbol>
<symbol id="icon-circle-right" viewBox="0 0 32 32">
<path d="M16 0c-8.837 0-16 7.163-16 16s7.163 16 16 16 16-7.163 16-16-7.163-16-16-16zM16 29c-7.18 0-13-5.82-13-13s5.82-13 13-13 13 5.82 13 13-5.82 13-13 13z"></path>
<path d="M11.086 22.086l2.829 2.829 8.914-8.914-8.914-8.914-2.828 2.828 6.086 6.086z"></path>
</symbol>
<symbol id="icon-film" viewBox="0 0 32 32">
<path d="M0 4v24h32v-24h-32zM6 26h-4v-4h4v4zM6 18h-4v-4h4v4zM6 10h-4v-4h4v4zM24 26h-16v-20h16v20zM30 26h-4v-4h4v4zM30 18h-4v-4h4v4zM30 10h-4v-4h4v4zM12 10v12l8-6z"></path>
</symbol>
<symbol id="icon-github" viewBox="0 0 32 32">
<path d="M16 0.395c-8.836 0-16 7.163-16 16 0 7.069 4.585 13.067 10.942 15.182 0.8 0.148 1.094-0.347 1.094-0.77 0-0.381-0.015-1.642-0.022-2.979-4.452 0.968-5.391-1.888-5.391-1.888-0.728-1.849-1.776-2.341-1.776-2.341-1.452-0.993 0.11-0.973 0.11-0.973 1.606 0.113 2.452 1.649 2.452 1.649 1.427 2.446 3.743 1.739 4.656 1.33 0.143-1.034 0.558-1.74 1.016-2.14-3.554-0.404-7.29-1.777-7.29-7.907 0-1.747 0.625-3.174 1.649-4.295-0.166-0.403-0.714-2.030 0.155-4.234 0 0 1.344-0.43 4.401 1.64 1.2-0.34 2.579-0.536 4.004-0.539h0.001c1.359 0.006 2.729 0.184 4.008 0.539 3.054-2.070 4.395-1.64 4.395-1.64 0.871 2.204 0.323 3.831 0.157 4.234 1.026 1.12 1.647 2.548 1.647 4.295 0 6.145-3.743 7.498-7.306 7.895 0.574 0.497 1.085 1.47 1.085 2.963 0 2.141-0.019 3.864-0.019 4.391 0 0.426 0.288 0.925 1.099 0.768 6.354-2.118 10.933-8.113 10.933-15.18 0-8.837-7.164-16-16-16z"></path>
</symbol>
<symbol id="icon-headphones" viewBox="0 0 32 32">
<path d="M9 18h-2v14h2c0.55 0 1-0.45 1-1v-12c0-0.55-0.45-1-1-1zM23 18c-0.55 0-1 0.45-1 1v12c0 0.55 0.45 1 1 1h2v-14h-2z"></path>
<path d="M32 16c0-8.837-7.163-16-16-16s-16 7.163-16 16c0 1.919 0.338 3.759 0.958 5.464-0.602 1.012-0.957 2.232-0.957 3.534 0 3.514 2.587 6.423 5.961 6.926l0.038 0.005v-13.857c-1.032 0.151-1.959 0.508-2.77 1.029l0.028-0.017c-0.164-0.777-0.258-1.669-0.258-2.584v-0c0-7.18 5.82-13 13-13s13 5.82 13 13c0 0.885-0.088 1.749-0.257 2.584-0.784-0.504-1.71-0.862-2.705-1.008l-0.038-0.005v13.858c3.412-0.507 6.001-3.416 6.001-6.929 0-1.303-0.356-2.523-0.976-3.568l0.018 0.032c0.62-1.705 0.958-3.545 0.958-5.465z"></path>
</symbol>
<symbol id="icon-highlight_remove" viewBox="0 0 32 32">
<path d="M16 26.688q4.375 0 7.531-3.156t3.156-7.531-3.156-7.531-7.531-3.156-7.531 3.156-3.156 7.531 3.156 7.531 7.531 3.156zM16 2.688q5.5 0 9.407 3.907t3.907 9.407-3.907 9.407-9.407 3.907-9.407-3.907-3.907-9.407 3.907-9.407 9.407-3.907zM19.437 10.688l1.875 1.875-3.437 3.437 3.437 3.437-1.875 1.875-3.437-3.437-3.437 3.437-1.875-1.875 3.437-3.437-3.437-3.437 1.875-1.875 3.437 3.437z"></path>
</symbol>
<symbol id="icon-list" viewBox="0 0 32 32">
<path d="M9.312 9.312h18.688v2.688h-18.688v-2.688zM9.312 22.688v-2.688h18.688v2.688h-18.688zM9.312 17.312v-2.625h18.688v2.625h-18.688zM4 12v-2.688h2.688v2.688h-2.688zM4 22.688v-2.688h2.688v2.688h-2.688zM4 17.312v-2.625h2.688v2.625h-2.688z"></path>
</symbol>
<symbol id="icon-location2" viewBox="0 0 32 32">
<path d="M16 0c-5.523 0-10 4.477-10 10 0 10 10 22 10 22s10-12 10-22c0-5.523-4.477-10-10-10zM16 16.125c-3.383 0-6.125-2.742-6.125-6.125s2.742-6.125 6.125-6.125v0c3.383 0 6.125 2.742 6.125 6.125s-2.742 6.125-6.125 6.125v0zM12.125 10c0-2.14 1.735-3.875 3.875-3.875s3.875 1.735 3.875 3.875v0c0 2.14-1.735 3.875-3.875 3.875s-3.875-1.735-3.875-3.875v0z"></path>
</symbol>
<symbol id="icon-mail4" viewBox="0 0 32 32">
<path d="M16 0c-8.837 0-16 7.163-16 16s7.163 16 16 16 16-7.163 16-16-7.163-16-16-16zM8 8h16c0.286 0 0.563 0.061 0.817 0.177l-8.817 10.286-8.817-10.287c0.254-0.116 0.531-0.177 0.817-0.177zM6 22v-12c0-0.042 0.002-0.084 0.004-0.125l5.864 6.842-5.8 5.8c-0.044-0.155-0.069-0.333-0.069-0.517v-0zM24 24h-16c-0.177 0-0.35-0.024-0.517-0.069l5.691-5.691 2.826 3.297 2.826-3.297 5.691 5.691c-0.167 0.045-0.34 0.069-0.517 0.069zM26 22c0 0.177-0.024 0.35-0.069 0.517l-5.8-5.8 5.865-6.842c0.003 0.041 0.004 0.083 0.004 0.125v12z"></path>
</symbol>
<symbol id="icon-mobile" viewBox="0 0 32 32">
<path d="M23 0h-14c-1.65 0-3 1.35-3 3v26c0 1.65 1.35 3 3 3h14c1.65 0 3-1.35 3-3v-26c0-1.65-1.35-3-3-3zM12 1.5h8v1h-8v-1zM16 30c-0.013 0-0.029 0-0.045 0-1.105 0-2-0.895-2-2s0.895-2 2-2c0.016 0 0.031 0 0.047 0.001l-0.002-0c1.085 0.025 1.956 0.91 1.956 2s-0.87 1.974-1.952 1.999l-0.002 0zM24 24h-16v-20h16v20z"></path>
</symbol>
<symbol id="icon-pets" viewBox="0 0 32 32">
<path d="M23.125 19.812l1.063 1.063 0.531 0.563 0.5 0.593 0.469 0.593 0.407 0.625 0.312 0.688 0.188 0.719 0.063 0.751-0.031 0.781q-0.688 2.625-3.125 3.125-0.437 0.063-3.031-0.251t-4.344-0.312h-0.251q-1.751 0-4.344 0.312t-3.031 0.251q-2.437-0.5-3.125-3.125-0.188-1.251 0.437-2.563t1.156-1.875 1.907-1.937q0.625-0.688 1.656-1.937t1.656-1.937q1.125-1.375 2.312-1.751 0.251-0.125 0.437-0.125 0.375-0.063 1.063-0.063 0.751 0 1.063 0.063 0.188 0 0.437 0.125 1.188 0.375 2.312 1.751 0.563 0.688 1.625 1.937t1.688 1.937zM22.688 12.688q0-1.375 0.969-2.375t2.344-1 2.344 1 0.969 2.375-0.969 2.344-2.344 0.969-2.344-0.969-0.969-2.344zM16.688 7.312q0-1.375 0.969-2.344t2.344-0.969 2.344 0.969 0.969 2.344-0.969 2.375-2.344 1-2.344-1-0.969-2.375zM8.688 7.312q0-1.375 0.969-2.344t2.344-0.969 2.344 0.969 0.969 2.344-0.969 2.375-2.344 1-2.344-1-0.969-2.375zM2.688 12.688q0-1.375 0.969-2.375t2.344-1 2.344 1 0.969 2.375-0.969 2.344-2.344 0.969-2.344-0.969-0.969-2.344z"></path>
</symbol>
<symbol id="icon-pin_drop" viewBox="0 0 32 32">
<path d="M6.688 26.688h18.625v2.625h-18.625v-2.625zM13.312 10.688q0 1.125 0.781 1.875t1.907 0.751 1.907-0.751 0.781-1.875q0-1.063-0.812-1.875t-1.875-0.812-1.875 0.812-0.812 1.875zM24 10.688q0 2.688-2 6.344t-4 5.969l-2 2.312q-0.875-0.937-2.219-2.563t-3.563-5.5-2.219-6.563q0-3.312 2.344-5.656t5.656-2.344 5.656 2.344 2.344 5.656z"></path>
</symbol>
<symbol id="icon-skype" viewBox="0 0 32 32">
<path d="M13.3 1.169c-0.050-0.031-0.106-0.056-0.156-0.081-0.056 0.012-0.106 0.019-0.162 0.031l0.319 0.050zM1.15 13.156c-0.009 0.042-0.018 0.098-0.024 0.154l-0.001 0.008c0.031 0.050 0.050 0.1 0.081 0.15l-0.056-0.313zM30.837 18.831c0.012-0.056 0.019-0.113 0.031-0.169-0.031-0.050-0.050-0.1-0.081-0.15l0.050 0.319zM18.5 30.719c0.050 0.031 0.106 0.056 0.156 0.081 0.046-0.010 0.104-0.019 0.162-0.024l0.007-0.001-0.325-0.056z"></path>
<path d="M30.869 18.663c-0.012 0.056-0.019 0.113-0.031 0.169l-0.056-0.325c0.031 0.056 0.056 0.106 0.087 0.156 0.163-0.9 0.25-1.819 0.25-2.738 0-0.006 0-0.013 0-0.020 0-4.167-1.692-7.939-4.426-10.667l-0-0c-1.342-1.343-2.935-2.435-4.702-3.199l-0.098-0.038c-1.728-0.751-3.741-1.188-5.855-1.188-0.009 0-0.018 0-0.027 0h0.001c-0.963 0-1.925 0.088-2.863 0.269h-0.006c0.050 0.025 0.106 0.050 0.156 0.081l-0.319-0.050c0.056-0.012 0.106-0.019 0.162-0.031-1.215-0.658-2.659-1.046-4.193-1.050h-0.001c-2.388 0-4.638 0.931-6.325 2.619s-2.619 3.937-2.619 6.325c0 1.519 0.394 3.019 1.125 4.338 0.009-0.042 0.018-0.098 0.024-0.154l0.001-0.008 0.056 0.319c-0.031-0.050-0.056-0.1-0.081-0.15-0.15 0.856-0.225 1.731-0.225 2.606 0 0.004 0 0.008 0 0.013 0 4.167 1.691 7.939 4.425 10.668l0 0c1.343 1.344 2.938 2.437 4.708 3.2l0.098 0.038c1.728 0.752 3.742 1.189 5.857 1.189 0.943 0 1.866-0.087 2.761-0.253l-0.093 0.014c-0.050-0.031-0.1-0.056-0.156-0.081l0.325 0.056c-0.046 0.010-0.104 0.019-0.162 0.024l-0.007 0.001c1.265 0.729 2.782 1.16 4.399 1.163h0.001c2.387 0 4.637-0.931 6.325-2.619s2.619-3.938 2.619-6.325c-0.009-1.598-0.429-3.096-1.161-4.395l0.024 0.045zM16.069 25.181c-5.369 0-7.769-2.637-7.769-4.619 0-1.012 0.75-1.725 1.781-1.725 2.3 0 1.7 3.3 5.988 3.3 2.194 0 3.406-1.194 3.406-2.413 0-0.731-0.363-1.544-1.806-1.9l-4.775-1.194c-3.844-0.963-4.544-3.044-4.544-5 0-4.056 3.819-5.581 7.406-5.581 3.306 0 7.2 1.825 7.2 4.263 0 1.044-0.906 1.65-1.938 1.65-1.962 0-1.6-2.713-5.55-2.713-1.963 0-3.044 0.887-3.044 2.156s1.55 1.675 2.894 1.981l3.538 0.787c3.869 0.863 4.85 3.125 4.85 5.25 0 3.294-2.531 5.756-7.637 5.756z"></path>
</symbol>
<symbol id="icon-sports_basketball" viewBox="0 0 32 32">
<path d="M11.937 17.312h2.751v11.937q-1.937-0.188-4.344-1.344t-3.844-2.593q1.937-1.063 3.531-3.437t1.907-4.563zM22.812 17.312h6.437q-0.312 3.125-2.063 5.875-1.563-0.751-2.812-2.469t-1.563-3.407zM4.812 23.188q-1.812-2.812-2.063-5.875h6.437q-0.312 1.688-1.563 3.407t-2.812 2.469zM20.063 17.312q0.312 2.188 1.907 4.563t3.531 3.437q-1.375 1.437-3.781 2.593t-4.407 1.344v-11.937h2.751zM11.937 14.688q-0.312-2.188-1.907-4.563t-3.531-3.437q1.375-1.437 3.781-2.593t4.407-1.344v11.937h-2.751zM20.063 14.688h-2.751v-11.937q1.937 0.188 4.344 1.344t3.844 2.593q-1.937 1.063-3.531 3.437t-1.907 4.563zM9.188 14.688h-6.437q0.312-3.125 2.063-5.875 1.563 0.751 2.812 2.469t1.563 3.407zM22.812 14.688q0.312-1.688 1.563-3.407t2.812-2.469q1.751 2.751 2.063 5.875h-6.437z"></path>
</symbol>
<symbol id="icon-sports_tennis" viewBox="0 0 32 32">
<path d="M24 20q2.188 0 3.751 1.563t1.563 3.751-1.563 3.781-3.751 1.593-3.751-1.563-1.563-3.812q0-2.188 1.563-3.751t3.751-1.563zM24 22.688q-1.125 0-1.875 0.751-0.812 0.812-0.812 1.875t0.812 1.875 1.875 0.812q1.125 0 1.875-0.751 0.812-0.812 0.812-1.907t-0.812-1.907q-0.751-0.751-1.875-0.751zM13.751 15.563q1.563 1.563 4.219 1.156t4.781-2.531 2.531-4.781-1.156-4.219-4.188-1.125-4.751 2.563-2.563 4.751 1.125 4.188zM26 3.312q2.312 2.375 1.937 6.093t-3.312 6.656q-1.563 1.563-3.593 2.469t-3.719 0.907h-2.031l-1.063 0.031-1.156 0.156-1.031 0.312-1.093 0.531-0.937 0.781-5.625 5.625-1.937-1.875 5.688-5.625q0.437-0.437 0.781-0.937t0.531-1.093 0.312-1.063 0.156-1.188 0.031-1.063v-2.031q0-1.625 0.907-3.656t2.469-3.593q2.937-2.937 6.656-3.375t6.031 1.937z"></path>
</symbol>
<symbol id="icon-sports_volleyball" viewBox="0 0 32 32">
<path d="M29.251 14.437l-11.937-6.875v-4.812q4.625 0.5 8 3.781t3.937 7.907zM10.751 28.251l11.937-6.875 4.125 2.437q-4 5.5-10.812 5.5-2.751 0-5.251-1.063zM17.312 10.625l11.937 6.875q-0.251 2.063-1.125 3.937l-10.812-6.188v-4.625zM16 17.563l4 2.312-11.937 6.812q-1.563-1.125-2.875-2.937zM14.688 15.251l-4 2.312v-13.751q1.937-0.875 4-1.063v12.5zM8 5.375v13.688l-4.125 2.437q-1.188-2.688-1.188-5.5 0-6.625 5.312-10.625z"></path>
</symbol>
<symbol id="icon-telegram" viewBox="0 0 32 32">
<path d="M16 0c-8.838 0-16 7.162-16 16s7.162 16 16 16 16-7.163 16-16-7.163-16-16-16zM23.863 10.969l-2.625 12.369c-0.181 0.881-0.712 1.087-1.45 0.681l-4-2.956-1.919 1.869c-0.225 0.219-0.4 0.4-0.8 0.4-0.519 0-0.431-0.194-0.606-0.688l-1.363-4.475-3.956-1.231c-0.856-0.262-0.862-0.85 0.194-1.269l15.412-5.95c0.7-0.319 1.381 0.169 1.113 1.25z"></path>
</symbol>
<symbol id="icon-camera1" viewBox="0 0 32 32">
<path d="M0 9.6c0-1.76 1.44-3.2 3.2-3.2h4.8l3.2-3.2h9.6l3.2 3.2h4.8c1.767 0 3.2 1.433 3.2 3.2v0 16c0 1.767-1.433 3.2-3.2 3.2v0h-25.6c-1.767 0-3.2-1.433-3.2-3.2v0-16zM16 25.6c4.418 0 8-3.582 8-8s-3.582-8-8-8v0c-4.418 0-8 3.582-8 8s3.582 8 8 8v0zM16 22.4c-2.651 0-4.8-2.149-4.8-4.8s2.149-4.8 4.8-4.8v0c2.651 0 4.8 2.149 4.8 4.8s-2.149 4.8-4.8 4.8v0z"></path>
</symbol>
<symbol id="icon-headphones1" viewBox="0 0 32 32">
<path d="M25.6 12.8c0-5.302-4.298-9.6-9.6-9.6s-9.6 4.298-9.6 9.6v0 17.6h-3.2c-1.767 0-3.2-1.433-3.2-3.2v0-6.4c0-1.767 1.433-3.2 3.2-3.2v0-4.8c0-7.069 5.731-12.8 12.8-12.8s12.8 5.731 12.8 12.8v0 4.8c1.767 0 3.2 1.433 3.2 3.2v0 6.4c0 1.767-1.433 3.2-3.2 3.2v0h-3.2v-17.6zM19.2 16h4.8v16h-4.8v-16zM8 16h4.8v16h-4.8v-16z"></path>
</symbol>
<symbol id="icon-book11" viewBox="0 0 30 32">
<path d="M29.268 8.536c0.446 0.643 0.571 1.482 0.321 2.304l-4.911 16.179c-0.446 1.518-2.018 2.696-3.554 2.696h-16.482c-1.821 0-3.768-1.446-4.429-3.304-0.286-0.804-0.286-1.589-0.036-2.268 0.036-0.357 0.107-0.714 0.125-1.143 0.018-0.286-0.143-0.518-0.107-0.732 0.071-0.429 0.446-0.732 0.732-1.214 0.536-0.893 1.143-2.339 1.339-3.268 0.089-0.339-0.089-0.732 0-1.036 0.089-0.339 0.429-0.589 0.607-0.911 0.482-0.821 1.107-2.411 1.196-3.25 0.036-0.375-0.143-0.786-0.036-1.071 0.125-0.411 0.518-0.589 0.786-0.946 0.429-0.589 1.143-2.286 1.25-3.232 0.036-0.304-0.143-0.607-0.089-0.929 0.071-0.339 0.5-0.696 0.786-1.107 0.75-1.107 0.893-3.554 3.161-2.911l-0.018 0.054c0.304-0.071 0.607-0.161 0.911-0.161h13.589c0.839 0 1.589 0.375 2.036 1 0.464 0.643 0.571 1.482 0.321 2.321l-4.893 16.179c-0.839 2.75-1.304 3.357-3.571 3.357h-15.518c-0.232 0-0.518 0.054-0.679 0.268-0.143 0.214-0.161 0.375-0.018 0.768 0.357 1.036 1.589 1.25 2.571 1.25h16.482c0.661 0 1.429-0.375 1.625-1.018l5.357-17.625c0.107-0.339 0.107-0.696 0.089-1.018 0.411 0.161 0.786 0.411 1.054 0.768zM10.268 8.571c-0.107 0.321 0.071 0.571 0.393 0.571h10.857c0.304 0 0.643-0.25 0.75-0.571l0.375-1.143c0.107-0.321-0.071-0.571-0.393-0.571h-10.857c-0.304 0-0.643 0.25-0.75 0.571zM8.786 13.143c-0.107 0.321 0.071 0.571 0.393 0.571h10.857c0.304 0 0.643-0.25 0.75-0.571l0.375-1.143c0.107-0.321-0.071-0.571-0.393-0.571h-10.857c-0.304 0-0.643 0.25-0.75 0.571z"></path>
</symbol>
<symbol id="icon-pets1" viewBox="0 0 32 32">
<path d="M23.125 19.813l1.063 1.063t0.531 0.563 0.5 0.594 0.469 0.594 0.406 0.625 0.313 0.688 0.188 0.719 0.063 0.75-0.031 0.781q-0.688 2.625-3.125 3.125-0.438 0.063-3.031-0.25t-4.344-0.313h-0.25q-1.75 0-4.344 0.313t-3.031 0.25q-2.438-0.5-3.125-3.125-0.188-1.25 0.438-2.563t1.156-1.875 1.906-1.938q0.625-0.688 1.656-1.938t1.656-1.938q1.125-1.375 2.313-1.75 0.25-0.125 0.438-0.125 0.375-0.063 1.063-0.063 0.75 0 1.063 0.063 0.188 0 0.438 0.125 1.188 0.375 2.313 1.75 0.563 0.688 1.625 1.938t1.688 1.938zM22.688 12.688q0-1.375 0.969-2.375t2.344-1 2.344 1 0.969 2.375-0.969 2.344-2.344 0.969-2.344-0.969-0.969-2.344zM16.688 7.313q0-1.375 0.969-2.344t2.344-0.969 2.344 0.969 0.969 2.344-0.969 2.375-2.344 1-2.344-1-0.969-2.375zM8.688 7.313q0-1.375 0.969-2.344t2.344-0.969 2.344 0.969 0.969 2.344-0.969 2.375-2.344 1-2.344-1-0.969-2.375zM2.688 12.688q0-1.375 0.969-2.375t2.344-1 2.344 1 0.969 2.375-0.969 2.344-2.344 0.969-2.344-0.969-0.969-2.344z"></path>
</symbol>
<symbol id="icon-sports_tennis1" viewBox="0 0 32 32">
<path d="M24 20q2.188 0 3.75 1.563t1.563 3.75-1.563 3.781-3.75 1.594-3.75-1.563-1.563-3.813q0-2.188 1.563-3.75t3.75-1.563zM24 22.688q-1.125 0-1.875 0.75-0.813 0.813-0.813 1.875t0.813 1.875 1.875 0.813q1.125 0 1.875-0.75 0.813-0.813 0.813-1.906t-0.813-1.906q-0.75-0.75-1.875-0.75zM13.75 15.563q1.563 1.563 4.219 1.156t4.781-2.531 2.531-4.781-1.156-4.219-4.188-1.125-4.75 2.563-2.563 4.75 1.125 4.188zM26 3.313q2.313 2.375 1.938 6.094t-3.313 6.656q-1.563 1.563-3.594 2.469t-3.719 0.906h-2.031t-1.063 0.031-1.156 0.156-1.031 0.313-1.094 0.531-0.938 0.781l-5.625 5.625-1.938-1.875 5.688-5.625q0.438-0.438 0.781-0.938t0.531-1.094 0.313-1.063 0.156-1.188 0.031-1.063v-2.031q0-1.625 0.906-3.656t2.469-3.594q2.938-2.938 6.656-3.375t6.031 1.938z"></path>
</symbol>
<symbol id="icon-sports_volleyball1" viewBox="0 0 32 32">
<path d="M29.25 14.438l-11.938-6.875v-4.813q4.625 0.5 8 3.781t3.938 7.906zM10.75 28.25l11.938-6.875 4.125 2.438q-4 5.5-10.813 5.5-2.75 0-5.25-1.063zM17.313 10.625l11.938 6.875q-0.25 2.063-1.125 3.938l-10.813-6.188v-4.625zM16 17.563l4 2.313-11.938 6.813q-1.563-1.125-2.875-2.938zM14.688 15.25l-4 2.313v-13.75q1.938-0.875 4-1.063v12.5zM8 5.375v13.688l-4.125 2.438q-1.188-2.688-1.188-5.5 0-6.625 5.313-10.625z"></path>
</symbol>
<symbol id="icon-sports_basketball1" viewBox="0 0 32 32">
<path d="M11.938 17.313h2.75v11.938q-1.938-0.188-4.344-1.344t-3.844-2.594q1.938-1.063 3.531-3.438t1.906-4.563zM22.813 17.313h6.438q-0.313 3.125-2.063 5.875-1.563-0.75-2.813-2.469t-1.563-3.406zM4.813 23.188q-1.813-2.813-2.063-5.875h6.438q-0.313 1.688-1.563 3.406t-2.813 2.469zM20.063 17.313q0.313 2.188 1.906 4.563t3.531 3.438q-1.375 1.438-3.781 2.594t-4.406 1.344v-11.938h2.75zM11.938 14.688q-0.313-2.188-1.906-4.563t-3.531-3.438q1.375-1.438 3.781-2.594t4.406-1.344v11.938h-2.75zM20.063 14.688h-2.75v-11.938q1.938 0.188 4.344 1.344t3.844 2.594q-1.938 1.063-3.531 3.438t-1.906 4.563zM9.188 14.688h-6.438q0.313-3.125 2.063-5.875 1.563 0.75 2.813 2.469t1.563 3.406zM22.813 14.688q0.313-1.688 1.563-3.406t2.813-2.469q1.75 2.75 2.063 5.875h-6.438z"></path>
</symbol>
<symbol id="icon-linkedin" viewBox="0 0 24 28">
<path d="M5.453 9.766v15.484h-5.156v-15.484h5.156zM5.781 4.984c0.016 1.484-1.109 2.672-2.906 2.672v0h-0.031c-1.734 0-2.844-1.188-2.844-2.672 0-1.516 1.156-2.672 2.906-2.672 1.766 0 2.859 1.156 2.875 2.672zM24 16.375v8.875h-5.141v-8.281c0-2.078-0.75-3.5-2.609-3.5-1.422 0-2.266 0.953-2.641 1.875-0.125 0.344-0.172 0.797-0.172 1.266v8.641h-5.141c0.063-14.031 0-15.484 0-15.484h5.141v2.25h-0.031c0.672-1.062 1.891-2.609 4.672-2.609 3.391 0 5.922 2.219 5.922 6.969z"></path>
</symbol>
<symbol id="icon-github" viewBox="0 0 24 28">
<path d="M12 2c6.625 0 12 5.375 12 12 0 5.297-3.437 9.797-8.203 11.391-0.609 0.109-0.828-0.266-0.828-0.578 0-0.391 0.016-1.687 0.016-3.297 0-1.125-0.375-1.844-0.812-2.219 2.672-0.297 5.484-1.313 5.484-5.922 0-1.313-0.469-2.375-1.234-3.219 0.125-0.313 0.531-1.531-0.125-3.187-1-0.313-3.297 1.234-3.297 1.234-0.953-0.266-1.984-0.406-3-0.406s-2.047 0.141-3 0.406c0 0-2.297-1.547-3.297-1.234-0.656 1.656-0.25 2.875-0.125 3.187-0.766 0.844-1.234 1.906-1.234 3.219 0 4.594 2.797 5.625 5.469 5.922-0.344 0.313-0.656 0.844-0.766 1.609-0.688 0.313-2.438 0.844-3.484-1-0.656-1.141-1.844-1.234-1.844-1.234-1.172-0.016-0.078 0.734-0.078 0.734 0.781 0.359 1.328 1.75 1.328 1.75 0.703 2.141 4.047 1.422 4.047 1.422 0 1 0.016 1.937 0.016 2.234 0 0.313-0.219 0.688-0.828 0.578-4.766-1.594-8.203-6.094-8.203-11.391 0-6.625 5.375-12 12-12zM4.547 19.234c0.031-0.063-0.016-0.141-0.109-0.187-0.094-0.031-0.172-0.016-0.203 0.031-0.031 0.063 0.016 0.141 0.109 0.187 0.078 0.047 0.172 0.031 0.203-0.031zM5.031 19.766c0.063-0.047 0.047-0.156-0.031-0.25-0.078-0.078-0.187-0.109-0.25-0.047-0.063 0.047-0.047 0.156 0.031 0.25 0.078 0.078 0.187 0.109 0.25 0.047zM5.5 20.469c0.078-0.063 0.078-0.187 0-0.297-0.063-0.109-0.187-0.156-0.266-0.094-0.078 0.047-0.078 0.172 0 0.281s0.203 0.156 0.266 0.109zM6.156 21.125c0.063-0.063 0.031-0.203-0.063-0.297-0.109-0.109-0.25-0.125-0.313-0.047-0.078 0.063-0.047 0.203 0.063 0.297 0.109 0.109 0.25 0.125 0.313 0.047zM7.047 21.516c0.031-0.094-0.063-0.203-0.203-0.25-0.125-0.031-0.266 0.016-0.297 0.109s0.063 0.203 0.203 0.234c0.125 0.047 0.266 0 0.297-0.094zM8.031 21.594c0-0.109-0.125-0.187-0.266-0.172-0.141 0-0.25 0.078-0.25 0.172 0 0.109 0.109 0.187 0.266 0.172 0.141 0 0.25-0.078 0.25-0.172zM8.937 21.438c-0.016-0.094-0.141-0.156-0.281-0.141-0.141 0.031-0.234 0.125-0.219 0.234 0.016 0.094 0.141 0.156 0.281 0.125s0.234-0.125 0.219-0.219z"></path>
</symbol>
</defs>
</svg>
